<svg width="150" height="150" viewBox="0 0 150 150" fill="none" xmlns="http://www.w3.org/2000/svg">
  <circle cx="75" cy="75" r="72" stroke="#283246" stroke-width="6"/>
  <path d="M101.087 70.4761C105.319 68.8073 108.743 71.9169 110 73.7736C111.257 71.9169 114.681 68.8073 118.913 70.4761C124.301 72.601 124.301 79.4007 119.272 84.9254C115.31 89.2773 111.488 92.0635 110 92.9594C108.512 92.0635 104.69 89.2773 100.728 84.9254C95.699 79.4007 95.699 72.601 101.087 70.4761Z" fill="#283246"/>
  <path d="M55 92C47.5 93.8333 31.7 94 28.5 80C24.5 62.5 36 56.5 42 54.5C48 52.5 55 58.5 55 65.5C55 72.5 47.5 83.5 42 74.5C36.5 65.5 36 45 42 39C48 33 59.5 30.5 70.5 45C81.5 59.5 110.5 32.5 97 27C83.5 21.5 80.5 29.1646 81.5 39C82.3 46.8683 92.1667 52.6118 97 54.5C101 55.1667 109.2 58.3 110 65.5" stroke="#283246" stroke-width="4"/>
  <path fill-rule="evenodd" clip-rule="evenodd" d="M53 97.8367L75.9595 139.384L84.712 134.547L61.7525 93L53 97.8367ZM55.9279 99L62.4037 110.718L67.6551 107.816L61.1794 96.098L55.9279 99Z" fill="#283246"/>
  <circle cx="74.5" cy="92.5" r="1.5" fill="#283246"/>
  <circle cx="60.5" cy="74.5" r="1.5" fill="#283246"/>
  <circle cx="51.5" cy="108.5" r="1.5" fill="#283246"/>
  <circle cx="59.5" cy="87.5" r="1.5" fill="#283246"/>
  <circle cx="29.5" cy="95.5" r="1.5" fill="#283246"/>
  <circle cx="44.5" cy="99.5" r="0.5" fill="#283246"/>
  <circle cx="51.5" cy="83.5" r="0.5" fill="#283246"/>
  <circle cx="69.5" cy="103.5" r="0.5" fill="#283246"/>
  <circle cx="34.5" cy="80.5" r="0.5" fill="#283246"/>
</svg>
