<svg width="150" height="150" viewBox="0 0 150 150" fill="none" xmlns="http://www.w3.org/2000/svg">
  <circle cx="75" cy="75" r="72" stroke="#283246" stroke-width="6"/>
  <path d="M49.6025 61L31 73.2828M31 73.2828C39.6325 72.9106 58.4295 72.9106 64.5574 75.8883C67.3218 77.2316 70.3713 77.9931 73.3115 78.3479M31 73.2828C31.1216 80.1066 31.9484 94.4986 34.2828 97.4763C37.2008 101.198 45.2254 107.526 56.5328 105.665C65.5787 104.176 69.7855 95.6152 70.7582 91.521L73.3115 78.3479M104.68 61L120 73.2828C110.881 70.6774 89.3607 75.8883 85.7131 77.3771C83.382 78.3286 78.5181 78.9761 73.3115 78.3479M80 77.8792C80.3621 82.5336 81.5933 94.1941 83.6211 97.7217C86.1559 102.131 97.3815 108.378 106.796 105.071C116.211 101.764 119.108 97.7217 119.833 87.8005C120.412 79.8635 119.35 73.9597 118.746 72" stroke="#283246" stroke-width="6"/>
  <path d="M66.0873 34.4761C70.3192 32.8073 73.7433 35.9169 75 37.7736C76.2567 35.9169 79.6808 32.8073 83.9127 34.4761C89.301 36.601 89.301 43.4007 84.2719 48.9254C80.3104 53.2773 76.4882 56.0635 75 56.9594C73.5118 56.0635 69.6896 53.2773 65.7281 48.9254C60.699 43.4007 60.699 36.601 66.0873 34.4761Z" fill="#283246"/>
</svg>
