<svg width="150" height="150" viewBox="0 0 150 150" fill="none" xmlns="http://www.w3.org/2000/svg">
  <circle cx="75" cy="75" r="72" stroke="#283246" stroke-width="6"/>
  <path fill-rule="evenodd" clip-rule="evenodd" d="M34 50H82.6667C83.219 50 83.6667 50.4477 83.6667 51V60.6667H66.3333C63.5719 60.6667 61.3333 62.9052 61.3333 65.6667V79.2308H60V79C57.9231 79 56.3524 79.3237 55.2096 79.9055L55.154 79.8686C55.1318 79.9021 55.1091 79.936 55.0859 79.9704L55.061 79.9839L55.0287 80.0017C54.0273 80.558 53.2053 81.4551 53.0332 82.5674C52.1472 83.5546 51.087 84.5995 49.9005 85.5615C48.7667 86.4807 47.5645 87.2865 46.3292 87.9C46.7274 86.997 47.0504 86.0705 47.2308 85.1785C47.4842 83.9255 47.5433 82.313 46.6282 80.9628C45.6437 79.5103 43.9715 78.9744 42.1538 78.9744V79.2308H34C33.4477 79.2308 33 78.7831 33 78.2308V51C33 50.4477 33.4477 50 34 50ZM87.6667 51V60.6667H115C117.761 60.6667 120 62.9053 120 65.6667V92.8974C120 95.6589 117.761 97.8974 115 97.8974H108.684L108.69 97.9241C109.032 99.6148 110.295 101.873 111.468 103.496L113.933 106.91L109.729 106.663C105.832 106.435 102.305 104.416 99.5803 102.207C97.9825 100.912 96.587 99.4911 95.4688 98.1825C95.4965 98.2904 95.5351 98.3549 95.5569 98.384C95.5292 98.3581 95.4638 98.3062 95.3364 98.2355C95.1469 98.1302 94.8475 98.0054 94.4029 97.8974H66.3333C63.5719 97.8974 61.3333 95.6589 61.3333 92.8974V83.2308H57.9487V83.1748C57.8447 83.196 57.7489 83.2183 57.6609 83.2412C56.4241 84.8777 54.6123 86.8909 52.4197 88.6686C49.6948 90.8778 46.1678 92.8964 42.2709 93.1248L38.0669 93.3712L40.5325 89.9572C41.7046 88.3343 42.9683 86.0764 43.3102 84.3856C43.4846 83.5232 43.3339 83.2318 43.317 83.207C43.3142 83.2028 43.31 83.1971 43.2973 83.187L43.2909 83.1821L43.2821 83.1758V83.2308H34C31.2386 83.2308 29 80.9922 29 78.2308V51C29 48.2386 31.2386 46 34 46H82.6667C85.4281 46 87.6667 48.2386 87.6667 51ZM95.5569 98.384C95.5696 98.3958 95.5744 98.4022 95.5737 98.4024C95.5733 98.4025 95.572 98.4015 95.5698 98.3993C95.5686 98.3981 95.5673 98.3967 95.5657 98.3949C95.5632 98.3921 95.5603 98.3884 95.5569 98.384ZM108.641 97.641H108.718V96.7143L108.71 96.7198L108.703 96.7254C108.695 96.7317 108.69 96.7363 108.687 96.7399C108.685 96.7421 108.684 96.7439 108.683 96.7455C108.668 96.7674 108.549 96.9964 108.641 97.641ZM99.4247 96.6043L99.3391 96.5128H99.5466L99.4247 96.6043ZM91 71.7736C89.7433 69.9169 86.3192 66.8073 82.0873 68.4761C76.699 70.601 76.699 77.4007 81.7281 82.9254C85.6896 87.2773 89.5118 90.0635 91 90.9594C92.4882 90.0635 96.3104 87.2773 100.272 82.9254C105.301 77.4007 105.301 70.601 99.9127 68.4761C95.6808 66.8073 92.2567 69.9169 91 71.7736Z" fill="#283246"/>
</svg>
